<svg xmlns="http://www.w3.org/2000/svg" viewBox="0 0 512 268" width="512" height="268">
  <defs>
    <clipPath id="topHalf">
      <rect x="0" y="0" width="512" height="134" />
    </clipPath>
    <clipPath id="bottomHalf">
      <rect x="0" y="134" width="512" height="134" />
    </clipPath>
    <filter id="shadow" x="-20%" y="-20%" width="140%" height="140%">
      <feDropShadow dx="1" dy="2" stdDeviation="2.5" flood-color="#000000" flood-opacity="0.15"/>
    </filter>
  </defs>

  <!-- White background with thin, barely rounded gray border -->
  <rect x="3" y="3" width="506" height="262" rx="16" ry="16" fill="white" />
  <rect x="3" y="3" width="506" height="262" rx="16" ry="16" fill="none" stroke="#D1D5DB" stroke-width="2" />

  <!-- 
    Content centered at y=134 (half of 268).
    Same horizontal positions, just shifted vertically.
    Old center was y=256, new center is y=134. Shift = -122.
  -->

  <!-- Laravel "L" in Laravel red -->
  <g transform="translate(60, 60) scale(0.48)">
    <path d="M50.2753 0H0V308.689H144.713V263.27H50.2753V0Z" fill="#FF2D20"/>
  </g>

  <!-- Two-toned chevron arrow -->
  <!-- Top half: Laravel red with shadow -->
  <g filter="url(#shadow)">
    <g clip-path="url(#topHalf)">
      <polygon points="148,88 192,134 148,180 172,180 216,134 172,88" fill="#FF2D20"/>
    </g>
  </g>
  
  <!-- Bottom half: TypeScript blue -->
  <g clip-path="url(#bottomHalf)">
    <polygon points="148,88 192,134 148,180 172,180 216,134 172,88" fill="#3178C6"/>
  </g>

  <!-- TypeScript "TS" in TypeScript blue -->
  <g transform="translate(172, -55) scale(12)">
    <!-- T -->
    <path d="M5.27358 11.7324V9.6H14.632V11.7324H11.291V21.227H8.6311V11.7324Z" fill="#3178C6"/>
    <!-- S -->
    <path d="M15.3339 20.9763C15.7628 21.1925 16.2701 21.3547 16.8557 21.4628C17.4414 21.5709 18.0586 21.625 18.7075 21.625C19.3399 21.625 19.9406 21.5655 20.5098 21.4466C21.0789 21.3277 21.5779 21.1317 22.0068 20.8587C22.4357 20.586 22.7753 20.229 23.0255 19.7884C23.2755 19.3479 23.4008 18.8032 23.4008 18.1545C23.4008 17.6842 23.3293 17.2721 23.1863 16.918C23.0434 16.5639 22.8372 16.249 22.5677 15.9733C22.2983 15.6976 21.9752 15.4503 21.5985 15.2314C21.2218 15.0131 20.7971 14.8057 20.3242 14.6111C19.9777 14.4705 19.667 14.334 19.3921 14.2016C19.1171 14.0692 18.8834 13.934 18.691 13.7962C18.4985 13.6583 18.3501 13.5124 18.2456 13.3583C18.1411 13.2043 18.0889 13.0299 18.0889 12.8353C18.0889 12.6569 18.1356 12.4961 18.2291 12.3529C18.3226 12.2096 18.4545 12.0866 18.625 11.9839C18.7955 11.8812 18.9993 11.8015 19.2519 11.7447C19.4993 11.688 19.7743 11.6596 20.0767 11.6596C20.2967 11.6596 20.529 11.6758 20.7737 11.7082C21.0184 11.7407 21.2645 11.7907 21.5119 11.8582C21.7594 11.9258 22.0 12.0109 22.2337 12.1137C22.4674 12.2164 22.6832 12.3353 22.8812 12.4704V10.046C22.4797 9.8946 22.0412 9.7824 21.5655 9.7095C21.0899 9.6365 20.5441 9.6 19.9282 9.6C19.3014 9.6 18.7075 9.6662 18.1466 9.7987C17.5857 9.9311 17.0922 10.1379 16.666 10.419C16.2398 10.7001 15.903 11.0582 15.6556 11.4933C15.4081 11.9285 15.2844 12.4488 15.2844 13.0542C15.2844 13.8273 15.5112 14.4868 15.9649 15.0327C16.4186 15.5787 17.1073 16.0409 18.0311 16.4193C18.3941 16.5653 18.7322 16.7085 19.0457 16.8491C19.3591 16.9896 19.6299 17.1356 19.8581 17.2869C20.0863 17.4383 20.2664 17.6031 20.3984 17.7815C20.5304 17.9602 20.5964 18.1626 20.5964 18.3897C20.5964 18.5573 20.5551 18.7127 20.4726 18.8559C20.3901 18.9992 20.265 19.1235 20.0973 19.2289C19.9296 19.3343 19.7207 19.4168 19.4705 19.4762C19.2203 19.5357 18.9274 19.5654 18.5918 19.5654C18.0199 19.5654 17.4535 19.4668 16.8926 19.2695C16.3318 19.0722 15.8121 18.7762 15.3337 18.3816Z" fill="#3178C6"/>
  </g>
</svg>